<?xml version="1.0" encoding="UTF-8" standalone="no"?><!DOCTYPE svg PUBLIC "-//W3C//DTD SVG 1.1//EN" "http://www.w3.org/Graphics/SVG/1.1/DTD/svg11.dtd"><svg width="100%" height="100%" viewBox="0 0 2250 2250" version="1.1" xmlns="http://www.w3.org/2000/svg" xmlns:xlink="http://www.w3.org/1999/xlink" xml:space="preserve" xmlns:serif="http://www.serif.com/" style="fill-rule:evenodd;clip-rule:evenodd;stroke-linecap:round;stroke-linejoin:round;stroke-miterlimit:1.5;"><path id="Monster" d="M1851.72,1808.96l149.071,-74.536l0,-37.268l37.268,-18.634l0,-37.267l37.268,-18.634l-0,-37.268l37.268,-18.634l-0,-74.536l37.267,-18.633l0,-186.339l-74.535,37.267l-0,37.268l-372.678,186.339l-37.268,-18.634l-111.803,55.902l-37.268,-55.902l260.874,-130.437l0,-37.268l111.804,-55.902l-0,-37.267l37.268,-18.634l-0,-37.268l37.267,-18.634l0,-37.268l37.268,-18.634l0,-260.874l-37.268,-18.634l0,-37.268l-37.267,-18.634l-0,-74.535l-74.536,-37.268l0,-37.268l-74.536,-37.268l0,-37.268l-372.678,-186.339l-37.267,18.634l-111.804,-55.901l-37.268,18.633l-74.535,-37.267l-37.268,18.634l-37.268,-18.634l-37.267,18.634l-37.268,-18.634l-37.268,18.634l-37.268,-18.634l-37.268,18.634l-37.267,-18.634l-37.268,18.634l-37.268,-18.634l-111.803,55.901l-37.268,-18.634l-223.607,111.804l-0,37.268l-111.803,55.901l-0,37.268l-37.268,18.634l-3.483,113.545l-33.785,16.892l-0,111.804l37.268,18.634l-0,111.803l37.268,18.634l-0,74.536l37.267,18.633l-2.077,62.868l39.345,30.302l0,37.268l37.268,18.634l-37.268,18.634l-260.874,-130.438l-0,186.339l37.267,18.634l0,74.536l74.536,37.268l-0,37.267l74.536,37.268l-0,37.268l223.606,111.803l0,-37.267l-111.803,-55.902l-0,-37.268l-37.268,-18.634l0,-37.268l-74.535,-37.267l-0,-37.268l-37.268,-18.634l-0,-74.536l37.268,-18.634l186.339,93.17l37.267,-18.634l37.268,18.634l37.268,-18.634l-37.268,-18.634l0,-37.268l-37.268,-18.634l0,-74.535l-37.267,-18.634l-0,-74.536l-37.268,-18.634l-0,-37.267l-37.268,-18.634l-0,-37.268l111.803,55.902l0,37.267l37.268,18.634l0,37.268l111.804,55.902l-0,37.268l260.874,130.437l37.268,-18.634l149.071,74.536l37.268,-18.634l111.803,55.901l37.268,-18.634l37.268,18.634l-0,74.536l111.803,55.902l37.268,-18.634l37.268,18.634l37.268,-18.634l37.267,18.634l74.536,-37.268l37.268,18.634l111.803,-55.902l37.268,18.634l0,37.268l71.053,-35.527l37.267,18.634l40.751,-20.375l0,37.268l-37.268,18.634l0,37.267l-37.267,18.634l-0,37.268l-74.536,37.268l0,37.268Zm-633.553,-801.258l37.268,18.634l0,37.268l74.536,37.268l37.268,-18.634l37.267,18.634l37.268,-18.634l74.536,37.267l37.268,-18.633l37.267,18.633l111.804,-55.901l37.268,18.634l149.071,-74.536l-0,-74.536l37.268,-18.633l-0,-37.268l-37.268,-18.634l-0,-37.268l-26.819,-13.409l-10.449,-42.493l-37.268,-18.634l0,-37.267l-74.535,-37.268l-0,-37.268l-335.411,-167.705l-37.267,18.634l-111.804,-55.902l-37.268,18.634l-37.267,-18.634l-37.268,18.634l-0,37.268l-74.536,37.268l0,260.874l37.268,18.634l0,37.268l74.536,37.268l-0,74.535l37.267,18.634l0,37.268Zm-670.82,-409.946l111.804,-55.901l111.803,55.901l-0,74.536l37.268,18.634l-0,111.803l-37.268,18.634l-0,74.536l-149.071,74.535l-37.268,-18.634l-0,-74.535l-111.803,-55.902l-0,-149.071l74.535,-37.268l0,-37.268Z" style="fill:#20ff23;stroke:#000;stroke-width:12.5px;"/></svg>